<?xml version="1.0" encoding="UTF-8" standalone="no"?><!DOCTYPE svg PUBLIC "-//W3C//DTD SVG 1.1//EN" "http://www.w3.org/Graphics/SVG/1.1/DTD/svg11.dtd"><svg width="100%" height="100%" viewBox="0 0 800 658" version="1.1" xmlns="http://www.w3.org/2000/svg" xmlns:xlink="http://www.w3.org/1999/xlink" xml:space="preserve" xmlns:serif="http://www.serif.com/" style="fill-rule:evenodd;clip-rule:evenodd;stroke-linecap:round;stroke-linejoin:round;stroke-miterlimit:1.5;"><rect id="Artboard1" x="0" y="0" width="800" height="657.825" style="fill:none;"/><path d="M117.263,614.969c-47.871,-61.221 -76.414,-138.272 -76.414,-221.936c-0,-199.1 161.643,-360.743 360.743,-360.743c199.099,0 360.742,161.643 360.742,360.743c0,83.664 -28.543,160.715 -76.414,221.936" style="fill:#ebebeb;fill-opacity:0;stroke:#000;stroke-width:22.22px;"/><g id="Layer1"><circle cx="401.592" cy="372.948" r="49.319" style="fill:#ebebeb;fill-opacity:0;stroke:#ec4111;stroke-width:22.22px;"/><path d="M328.471,458.791c-4.57,-3.897 -8.825,-8.152 -12.722,-12.722c-0.629,-0.738 -1.249,-1.484 -1.86,-2.239c-15.682,-19.374 -25.08,-44.039 -25.08,-70.882c0,-62.246 50.536,-112.782 112.783,-112.782c62.246,-0 112.782,50.536 112.782,112.782c-0,26.843 -9.398,51.508 -25.08,70.882c-0.611,0.755 -1.231,1.501 -1.86,2.239c-3.897,4.57 -8.152,8.825 -12.722,12.722" style="fill:#ebebeb;fill-opacity:0;stroke:#ec4111;stroke-width:22.22px;"/><path d="M489.294,443.83l0.189,0.19l-87.891,87.891l-87.892,-87.891l0.189,-0.19" style="fill:#ebebeb;fill-opacity:0;stroke:#ec4111;stroke-width:22.22px;"/></g></svg>