<?xml version="1.0" encoding="UTF-8" standalone="no"?><!DOCTYPE svg PUBLIC "-//W3C//DTD SVG 1.1//EN" "http://www.w3.org/Graphics/SVG/1.1/DTD/svg11.dtd"><svg width="100%" height="100%" viewBox="0 0 600 494" version="1.1" xmlns="http://www.w3.org/2000/svg" xmlns:xlink="http://www.w3.org/1999/xlink" xml:space="preserve" xmlns:serif="http://www.serif.com/" style="fill-rule:evenodd;clip-rule:evenodd;stroke-linecap:round;stroke-linejoin:round;stroke-miterlimit:1.5;"><rect id="Artboard1" x="0" y="0" width="600" height="493.369" style="fill:none;"/><path d="M87.947,461.227c-35.903,-45.916 -57.31,-103.704 -57.31,-166.452c-0,-149.325 121.232,-270.557 270.557,-270.557c149.324,-0 270.557,121.232 270.557,270.557c-0,62.748 -21.408,120.536 -57.311,166.452" style="fill:#ebebeb;fill-opacity:0;stroke:#000;stroke-width:16.67px;"/><g id="Layer2"><path d="M379.876,243.403l-0,78.682c-0,21.713 -17.629,39.341 -39.341,39.341l-78.682,0c-21.713,0 -39.341,-17.628 -39.341,-39.341l-0,-78.682c-0,-21.713 17.628,-39.341 39.341,-39.341l78.682,0c21.712,0 39.341,17.628 39.341,39.341Z" style="fill:#ebebeb;fill-opacity:0;stroke:#ec4111;stroke-width:16.67px;"/><path d="M328.169,282.744l-40.798,26.073l0,-52.145l40.798,26.072Z" style="fill:#ebebeb;fill-opacity:0;stroke:#ec4111;stroke-width:16.67px;"/></g></svg>